<?xml version="1.0" encoding="UTF-8"?>
<svg version="1.1" xmlns="http://www.w3.org/2000/svg" width="1254" height="1254">
<path d="M0 0 C413.82 0 827.64 0 1254 0 C1254 413.82 1254 827.64 1254 1254 C840.18 1254 426.36 1254 0 1254 C0 840.18 0 426.36 0 0 Z " fill="#0A0F24" transform="translate(0,0)"/>
<path d="M0 0 C413.82 0 827.64 0 1254 0 C1254 413.82 1254 827.64 1254 1254 C840.18 1254 426.36 1254 0 1254 C0 840.18 0 426.36 0 0 Z M267 138 C265.7728125 138.43699219 264.545625 138.87398437 263.28125 139.32421875 C237.47509982 148.55643081 213.794432 162.99471479 194 182 C193.12085938 182.82757813 192.24171875 183.65515625 191.3359375 184.5078125 C175.12602283 200.16978639 163.03722485 218.93505075 153 239 C152.67370605 239.639375 152.34741211 240.27875 152.01123047 240.9375 C147.07807979 250.64703286 143.67283011 260.45008687 141 271 C140.80776855 271.75780762 140.61553711 272.51561523 140.41748047 273.29638672 C139.84255865 275.6101676 139.29073175 277.92800508 138.75 280.25 C138.58669189 280.93360596 138.42338379 281.61721191 138.25512695 282.3215332 C134.97679826 297.12378982 135.85111806 312.64133051 135.85282898 327.69868469 C135.84952625 330.33267352 135.845837 332.9666593 135.8416875 335.60064667 C135.8324081 342.06600803 135.82844738 348.53136254 135.82616853 354.99672972 C135.82319428 362.74662459 135.81448986 370.49651049 135.80575425 378.24640063 C135.78495975 396.97299935 135.77444832 415.69959959 135.76562465 434.42620716 C135.76141138 443.29287217 135.75619035 452.15953652 135.75094012 461.02620097 C135.73305511 491.40450907 135.7180607 521.78281738 135.71061993 552.16112995 C135.71014518 554.06646039 135.70966929 555.97179084 135.70919226 557.87712128 C135.70895589 558.82194569 135.70871951 559.7667701 135.70847597 560.74022555 C135.70727484 565.52676821 135.70605937 570.31331086 135.70483398 575.09985352 C135.70459383 576.0497371 135.70435368 576.99962068 135.70410626 577.97828862 C135.6962161 608.76483077 135.67278744 639.55133436 135.64027804 670.33785968 C135.60593379 702.92174089 135.58626462 735.50559956 135.58297569 768.08949918 C135.58255818 771.67055365 135.58207862 775.25160812 135.58155251 778.83266258 C135.58136772 780.15520306 135.58136772 780.15520306 135.5811792 781.50446152 C135.5788531 795.65573697 135.56322651 809.80696739 135.54271066 823.95822682 C135.52239453 838.19826682 135.51700266 852.43825308 135.52648129 866.67830489 C135.53167352 875.1228418 135.52592734 883.56719903 135.50394662 892.01170986 C135.49033797 897.6707678 135.49160321 903.32970346 135.50434858 908.9887629 C135.51117911 912.2011627 135.50986545 915.4131587 135.49478849 918.62553982 C135.38640756 943.26380985 137.18034467 971.93547994 148.69140625 994.3203125 C149.87923071 996.75269334 150.85784044 999.17203078 151.83203125 1001.6953125 C153.90399676 1006.93061737 156.39520671 1011.83044197 159.125 1016.75 C159.84623047 1018.05142944 159.84623047 1018.05142944 160.58203125 1019.37915039 C164.87668173 1026.99835067 169.59598462 1034.12711499 175 1041 C175.41685059 1041.53109375 175.83370117 1042.0621875 176.26318359 1042.609375 C192.26529781 1062.73259837 210.82170064 1078.17447996 233 1091 C233.62986816 1091.37253906 234.25973633 1091.74507812 234.90869141 1092.12890625 C250.03983043 1101.03585966 266.52862768 1106.43372278 283.5625 1110.4375 C284.60768799 1110.6845166 285.65287598 1110.9315332 286.72973633 1111.18603516 C302.52818452 1114.69235847 318.53801137 1114.14678344 334.62948608 1114.14044189 C337.25593792 1114.14302805 339.88238675 1114.14600351 342.50883734 1114.1494453 C348.95552481 1114.15698875 355.40220398 1114.15921649 361.8488954 1114.15977435 C369.5763895 1114.16069162 377.30387602 1114.16736985 385.03136685 1114.17412117 C403.70339118 1114.19014596 422.37541467 1114.19608037 441.04744465 1114.20086992 C449.88786824 1114.20320932 458.72829118 1114.20681234 467.56871427 1114.2105653 C497.85602183 1114.22339745 528.14332904 1114.2341171 558.43063927 1114.2375679 C560.33022864 1114.23778953 562.22981801 1114.23801131 564.12940738 1114.23823325 C566.0334639 1114.23845389 567.93752042 1114.23867437 569.84157693 1114.2388947 C573.66114895 1114.23933724 577.48072096 1114.23978436 581.30029297 1114.24023438 C582.72082996 1114.24039846 582.72082996 1114.24039846 584.17006466 1114.24056586 C614.8665854 1114.24419524 645.56308251 1114.2601125 676.2595942 1114.28342474 C708.74694863 1114.30805173 741.23428955 1114.32174206 773.72165358 1114.32293582 C777.291737 1114.32310726 780.86182042 1114.32332269 784.43190384 1114.32357025 C785.31089861 1114.32362602 786.18989338 1114.32368179 787.09552436 1114.32373925 C801.20607516 1114.32488715 815.31660158 1114.33588682 829.42714416 1114.35045731 C843.62459359 1114.36486343 857.82201195 1114.36803612 872.01946668 1114.36001733 C880.43974364 1114.35558053 888.85991995 1114.35934306 897.28018356 1114.37525584 C902.92179766 1114.38507662 908.56334201 1114.38376068 914.20495561 1114.37381961 C917.40816019 1114.36847816 920.61113742 1114.369257 923.81433265 1114.38032833 C975.60397219 1114.54786447 1023.10773814 1099.33419188 1061 1063 C1062.3921875 1061.70255859 1062.3921875 1061.70255859 1063.8125 1060.37890625 C1087.91829263 1037.4894973 1104.6894838 1006.74396305 1113.6875 974.9375 C1113.97306763 973.93130615 1113.97306763 973.93130615 1114.2644043 972.90478516 C1114.88586267 970.61246289 1115.43938955 968.30801184 1116 966 C1116.24995619 965.06891389 1116.49991239 964.13782778 1116.75744301 963.17852694 C1119.80511511 950.38688975 1119.42064315 937.55944879 1119.38768005 924.47789001 C1119.39185665 921.77886814 1119.39721487 919.07987175 1119.40399987 916.38085753 C1119.4163221 910.52958265 1119.41759852 904.67838801 1119.41144943 898.82710457 C1119.40232952 890.12543247 1119.41041359 881.42383411 1119.42174067 872.72216765 C1119.44137927 857.17574578 1119.44376026 841.62935731 1119.43854547 826.082926 C1119.43398284 812.47337092 1119.43459425 798.86382903 1119.44038582 785.25427437 C1119.4411427 783.42651946 1119.44189868 781.59876455 1119.44265376 779.77100964 C1119.443799 777.01648813 1119.44494888 774.26196661 1119.44611301 771.5074451 C1119.45681417 745.90619956 1119.46154737 720.3049584 1119.45364285 694.70371151 C1119.45334567 693.73918309 1119.4530485 692.77465466 1119.45274232 691.7808981 C1119.45029356 683.94901616 1119.44768188 676.11713426 1119.44505819 668.28525237 C1119.43496036 637.75077561 1119.4433039 607.21635386 1119.46655273 576.68188477 C1119.49265332 542.3467414 1119.50546551 508.01163115 1119.49836498 473.67647749 C1119.49764897 470.011797 1119.49697458 466.3471165 1119.49632454 462.68243599 C1119.49606983 461.32901186 1119.49606983 461.32901186 1119.49580997 459.94824583 C1119.4935115 446.35578856 1119.50146248 432.76336214 1119.51461601 419.17091179 C1119.52955943 403.70162304 1119.53032768 388.23240635 1119.5125451 372.76311909 C1119.50301521 364.11819945 1119.50434875 355.47344807 1119.52177979 346.82853983 C1119.53233133 341.03852403 1119.52808255 335.24863533 1119.51229975 329.45863188 C1119.50373436 326.16984261 1119.50333618 322.88144168 1119.51656907 319.59265863 C1119.63992726 286.56468074 1112.27395068 257.20858106 1097 228 C1096.68546875 227.39607422 1096.3709375 226.79214844 1096.046875 226.16992188 C1082.447551 200.38306811 1061.28370306 177.9954631 1037 162 C1035.41251953 160.95392578 1035.41251953 160.95392578 1033.79296875 159.88671875 C1004.26419906 141.13540384 970.00538732 129.82108382 934.89199162 129.86298561 C933.25459744 129.85900787 933.25459744 129.85900787 931.58412459 129.85494977 C927.92473174 129.84728766 924.26537262 129.84669878 920.60597229 129.84609985 C917.95623697 129.84208318 915.30650478 129.83768091 912.65677112 129.8328203 C906.13687083 129.82177677 899.61697592 129.81610406 893.09706793 129.81211142 C885.28502062 129.80709058 877.47298366 129.79636116 869.66094248 129.78562968 C849.88100182 129.75881503 830.10105627 129.74374738 810.32110277 129.73028857 C804.96005232 129.72661602 799.59900215 129.7226133 794.23795199 129.7185359 C760.93039159 129.69326996 727.62283067 129.67123239 694.31526279 129.65880775 C686.60202088 129.65588666 678.88877899 129.65291909 671.17553711 129.64990234 C669.73819537 129.64934598 669.73819537 129.64934598 668.27181643 129.64877838 C637.23000323 129.63663302 606.18824686 129.60570441 575.14646033 129.56398082 C543.20669903 129.52112889 511.26696773 129.49455854 479.32717691 129.48933304 C474.80936991 129.48859268 470.29156297 129.48768201 465.77375603 129.48667526 C464.88469547 129.48648465 463.99563491 129.48629403 463.07963312 129.48609764 C448.81322129 129.48259391 434.54688098 129.4623416 420.28049535 129.43587863 C405.91894363 129.40964246 391.55747395 129.40204506 377.1959017 129.41297992 C368.68066979 129.41892524 360.16571762 129.41121245 351.65052845 129.38314908 C345.94165767 129.36573916 340.23297499 129.36697742 334.52409964 129.38251677 C331.28475284 129.39082891 328.04603146 129.38900982 324.80671579 129.36990531 C305.18518614 129.26136748 285.38101301 130.54954656 267 138 Z " fill="#000000" transform="translate(0,0)"/>
<path d="M0 0 C3.20418322 2.10120476 6.07565279 4.52813058 9 7 C10.99100153 8.64798254 12.98633484 10.29064105 14.98168945 11.93334961 C16.46065105 13.15138538 17.93834016 14.37096777 19.41479492 15.59204102 C24.02022899 19.3956969 28.66630613 23.13756594 33.375 26.8125 C39.32294864 31.45543106 45.18113695 36.19570794 51 41 C64.42947034 52.08678788 64.42947034 52.08678788 78 63 C87.42963826 70.50788124 96.77382728 78.12000941 106.12304688 85.72753906 C113.17150878 91.46215723 120.22214527 97.19214598 127.328125 102.85546875 C130.12289236 105.09863729 132.90175056 107.3605123 135.67944336 109.62475586 C141.39249483 114.28155633 147.12423268 118.90627474 152.9375 123.4375 C158.93839292 128.11719805 164.80963399 132.94358482 170.67016602 137.79736328 C175.75887383 142.00261087 180.91349234 146.11137956 186.11767578 150.17236328 C190.46851271 153.57055369 194.75482575 157.04003394 199.015625 160.55078125 C201.30985204 162.43360893 203.61180528 164.30474138 205.921875 166.16796875 C209.3692114 168.94849491 212.80397745 171.74379942 216.22900391 174.55175781 C217.6918916 175.74804259 219.16320765 176.93401266 220.63671875 178.1171875 C242.12015335 196.09076115 255.11470823 224.71607902 259 252 C259.13747596 254.7771884 259.23356974 257.53036195 259.2734375 260.30859375 C259.28592026 261.1040863 259.29840302 261.89957886 259.31126404 262.71917725 C259.58914175 284.6850032 259.18783963 305.95542552 249 326 C248.65839844 326.70044434 248.31679688 327.40088867 247.96484375 328.12255859 C242.63376935 339.03093075 236.84720302 348.71892268 229 358 C228.36835937 358.7940625 227.73671875 359.588125 227.0859375 360.40625 C218.10566284 371.25900747 206.05101565 378.97162223 194 386 C193.22245361 386.48919922 192.44490723 386.97839844 191.64379883 387.48242188 C172.90757408 398.23728133 150.11457954 400.62578886 129 400 C137.10461816 409.32943184 145.39095451 418.47486407 153.86352539 427.47094727 C156.77828201 430.57582389 159.63922761 433.7123584 162.4296875 436.9296875 C166.16990383 441.23234238 170.07215002 445.36898537 174 449.5 C178.55782279 454.29357224 183.03089569 459.1318997 187.36523438 464.12890625 C189.77379714 466.88566028 192.25717594 469.56958528 194.75 472.25 C195.79575201 473.37874036 196.84132086 474.50765042 197.88671875 475.63671875 C198.40669434 476.19794434 198.92666992 476.75916992 199.46240234 477.33740234 C203.20102116 481.3799546 206.91407034 485.44605304 210.63232422 489.50732422 C212.02579152 491.02814876 213.42087751 492.54747324 214.81640625 494.06640625 C221.74063989 501.60495415 228.66344539 509.14557929 235.375 516.875 C238.78479153 520.78994583 242.29339963 524.61177396 245.80761719 528.43261719 C249.49499039 532.44304567 253.15224625 536.47913776 256.78515625 540.5390625 C258.36482592 542.29425102 259.95743481 544.0378301 261.55859375 545.7734375 C262.38488281 546.67320312 263.21117187 547.57296875 264.0625 548.5 C264.81660156 549.3146875 265.57070313 550.129375 266.34765625 550.96875 C268 553 268 553 268 555 C268.66 555 269.32 555 270 555 C270 555.66 270 556.32 270 557 C260.92496276 557.04631059 251.8499661 557.08186267 242.77483654 557.10362434 C238.56103025 557.11406808 234.34730473 557.12823799 230.13354492 557.15087891 C226.06814593 557.17258633 222.00282468 557.18456419 217.93737221 557.18975449 C216.38520394 557.19345403 214.83304 557.20067819 213.28090477 557.21146011 C211.10929494 557.22594726 208.93800769 557.22797913 206.76635742 557.22705078 C205.52947678 557.231492 204.29259613 557.23593323 203.01823425 557.24050903 C200 557 200 557 197 555 C195.8125 551.375 195.8125 551.375 195 548 C194.34 548 193.68 548 193 548 C193 547.34 193 546.68 193 546 C192.40960937 545.72542969 191.81921875 545.45085938 191.2109375 545.16796875 C181.60731843 540.09467882 174.24287682 529.89451313 167 522 C165.50209004 520.37395163 164.00298315 518.74901477 162.50366211 517.12426758 C161.53662336 516.07630097 160.56999432 515.02795617 159.60375977 513.97924805 C153.11533117 506.94310188 146.55297347 499.97595915 140 493 C132.48738927 485.00246029 124.98293268 476.99915472 117.55126953 468.92626953 C111.08181196 461.90640281 104.53597264 454.95786094 98 448 C95.43687032 445.27142373 92.87427853 442.54234489 90.3125 439.8125 C89.69205811 439.1515332 89.07161621 438.49056641 88.43237305 437.80957031 C83.92701486 433.00401343 79.46188072 428.16274508 75.00634766 423.31103516 C71.94165656 419.98578753 68.79821848 416.76709349 65.5703125 413.6015625 C63.82086777 411.81730294 62.19284418 409.95603876 60.5625 408.0625 C57.52440954 404.53505269 54.29247127 401.27251033 50.9765625 398.0078125 C48.46884489 395.46044718 46.14314537 392.78351712 43.8359375 390.0546875 C41.94451681 387.7835385 41.94451681 387.7835385 38.8359375 385.76171875 C35.07738261 382.0230876 35.2441807 377.48665005 35.17337036 372.49041748 C35.17762416 371.04359103 35.19263455 369.59676078 35.21777344 368.15014648 C35.24999135 365.93809394 35.21801312 363.73331468 35.1796875 361.52148438 C35.18365181 360.10675482 35.1913381 358.69202976 35.203125 357.27734375 C35.20989258 356.00109131 35.21666016 354.72483887 35.22363281 353.40991211 C36.06858989 349.6987437 37.17633581 348.35182078 40.14131737 346.03504848 C43.59361826 344.11255847 47.08365155 344.31689719 50.9519043 344.37231445 C51.83243973 344.36504333 52.71297516 344.35777222 53.62019348 344.35028076 C56.5219475 344.33172856 59.4224646 344.34774622 62.32421875 344.36328125 C64.35196528 344.35523574 66.37970335 344.34471453 68.40742493 344.33183289 C73.74456591 344.30328894 79.08131871 344.30270508 84.41851807 344.30969238 C92.94216687 344.31701305 101.46568937 344.28546052 109.98923683 344.24724388 C112.95317828 344.23845484 115.91684265 344.24367203 118.88078308 344.25080872 C140.11304833 344.242488 160.06190655 339.99616617 176.140625 324.9140625 C187.30907124 313.41713254 194.13140818 299.49622372 198 284 C198.19078125 283.24847656 198.3815625 282.49695313 198.578125 281.72265625 C200.56763542 268.88294548 199.27431764 256.20225992 195 244 C194.66097656 242.97777344 194.32195312 241.95554687 193.97265625 240.90234375 C186.55532017 220.86761748 170.29245616 208.3387433 153.89233398 195.78393555 C148.49687812 191.64084053 143.24272073 187.33429041 138 183 C134.33730311 179.99513908 130.66916826 176.99695423 127 174 C126.40026367 173.50983398 125.80052734 173.01966797 125.18261719 172.51464844 C117.48853335 166.23004951 109.76029043 159.99798706 101.93383789 153.87890625 C97.5595856 150.45389604 93.24713447 146.95975779 88.95703125 143.4296875 C84.73839912 139.96338739 80.49805913 136.52401305 76.25878906 133.08300781 C72.80624189 130.28035187 69.35551421 127.47555393 65.91015625 124.6640625 C59.58826775 119.50922147 53.24740444 114.38830212 46.8125 109.375 C41.72939427 105.41352525 36.78827729 101.31595291 31.89379883 97.12451172 C27.44338614 93.33104867 22.86440559 89.72375148 18.24584961 86.13818359 C14.09502831 82.90069356 10.06074836 79.54859429 6.0625 76.125 C-2.95025104 67.8952059 -2.95025104 67.8952059 -14.3125 64.6875 C-15.42044922 64.63142578 -15.42044922 64.63142578 -16.55078125 64.57421875 C-22.72199799 65.6470459 -27.62473995 71.1443089 -32.1875 75.1875 C-36.57016746 79.03089393 -40.96525169 82.83548825 -45.5 86.5 C-49.91668732 90.07541354 -54.21783896 93.76595557 -58.5 97.5 C-62.78216104 101.23404443 -67.08331268 104.92458646 -71.5 108.5 C-75.86945343 112.03964625 -80.13398607 115.68370737 -84.375 119.375 C-93.04199435 126.91857635 -101.76104485 134.38868713 -110.6875 141.625 C-115.08726497 145.20339061 -119.29581432 148.94830818 -123.48828125 152.765625 C-126.00151232 155.00134533 -128.57311479 157.13377682 -131.1875 159.25 C-137.62711993 164.46518515 -143.85455403 169.91331752 -150.10351562 175.35351562 C-154.80095523 179.4317253 -159.53483503 183.46772568 -164.26171875 187.51171875 C-166.01952918 189.01672049 -167.77564446 190.52367703 -169.53125 192.03125 C-175.33921198 197.0177464 -181.15665575 201.99248233 -187 206.9375 C-187.51570557 207.37392822 -188.03141113 207.81035645 -188.56274414 208.26000977 C-191.04234662 210.35534046 -193.51527254 212.38194577 -196.125 214.31640625 C-201.45604433 219.29253051 -203.20335759 224.03115411 -203.50780869 231.16934967 C-203.53188158 233.63479842 -203.53406556 236.10051991 -203.51898193 238.56604004 C-203.52486317 239.94238649 -203.53249334 241.31872639 -203.541713 242.69505453 C-203.56192248 246.46241833 -203.55743279 250.22940447 -203.54880548 253.99679756 C-203.54385309 258.06490419 -203.5619549 262.13291689 -203.57722473 266.20098877 C-203.60052206 273.24431017 -203.60928593 280.28752864 -203.60811615 287.33088684 C-203.60644596 297.51431458 -203.62679132 307.69760525 -203.65247145 317.88099641 C-203.69354179 334.40373051 -203.71686266 350.92643993 -203.72900391 367.44921875 C-203.74083447 383.49741996 -203.76103523 399.54557472 -203.79248047 415.59375 C-203.79441657 416.58333074 -203.79635267 417.57291149 -203.79834744 418.59247953 C-203.80811211 423.55702639 -203.8180412 428.5215729 -203.82805204 433.48611927 C-203.91085988 474.65739042 -203.96485463 515.82866234 -204 557 C-208.80137245 557.09978872 -213.60212521 557.17189617 -218.40429688 557.21972656 C-220.03363578 557.23969079 -221.66290445 557.2668723 -223.29199219 557.30175781 C-234.47662984 557.535057 -244.00981029 557.56010605 -252.875 549.8125 C-259.18159497 543.55344218 -260.4588082 535.72555657 -260.53497362 527.19075298 C-260.52605073 525.9313128 -260.51712785 524.67187262 -260.50793457 523.37426758 C-260.51254964 522.00347387 -260.51890662 520.63268512 -260.52684355 519.26190662 C-260.54347708 515.51415766 -260.53531805 511.76681831 -260.52289867 508.01906824 C-260.51382585 503.96990906 -260.52782895 499.92081893 -260.53881836 495.87167358 C-260.55658441 487.94694164 -260.55277215 480.02236142 -260.5411678 472.09762359 C-260.5321262 465.65577816 -260.53091261 459.2139752 -260.53526306 452.77212524 C-260.53587599 451.85452323 -260.53648893 450.93692121 -260.53712043 449.99151307 C-260.53839936 448.12729445 -260.53969621 446.26307584 -260.5410108 444.39885724 C-260.55241099 426.92706007 -260.5393117 409.45534693 -260.51780933 391.98356354 C-260.49993886 376.99909144 -260.50304312 362.0147433 -260.52148438 347.03027344 C-260.542901 329.62006306 -260.5513124 312.20992627 -260.53903532 294.79970455 C-260.53776115 292.94242796 -260.53650367 291.08515137 -260.53526306 289.22787476 C-260.53464596 288.31411145 -260.53402886 287.40034814 -260.53339306 286.45889503 C-260.52994253 280.02642186 -260.53576208 273.59399546 -260.54518127 267.16152954 C-260.55641143 259.32013453 -260.55333986 251.47889965 -260.5320583 243.63752294 C-260.52156153 239.6383796 -260.51740246 235.63950302 -260.53065491 231.64036179 C-260.54261337 227.97622619 -260.5359601 224.31260351 -260.5147447 220.64851415 C-260.50819165 218.70209112 -260.52118386 216.75563223 -260.53497362 214.80924702 C-260.43216247 203.28862561 -257.0931416 196.04809629 -249 188 C-242.84191071 182.100493 -236.38390757 176.63360724 -229.75 171.28125 C-226.91900422 168.93281032 -224.20616402 166.49090098 -221.5 164 C-217.12829537 159.98025464 -212.62213114 156.20011805 -208.00390625 152.46875 C-202.5369753 147.97577164 -197.23324209 143.29253937 -191.89648438 138.64648438 C-187.20215479 134.57097475 -182.47101259 130.53816153 -177.74707031 126.49707031 C-175.96164376 124.96713241 -174.17963855 123.43329199 -172.3984375 121.8984375 C-166.27419208 116.62545139 -160.10444765 111.42894355 -153.83203125 106.33203125 C-148.14305817 101.64745618 -142.58170319 96.81139806 -137 92 C-123.74670726 80.5757331 -123.74670726 80.5757331 -117.5625 75.5625 C-112.51145932 71.46084729 -107.59871604 67.21408989 -102.69213867 62.94213867 C-97.03755469 58.02133926 -91.32536671 53.17226279 -85.59277344 48.34277344 C-83.43575184 46.52431562 -81.28222817 44.70174231 -79.12890625 42.87890625 C-77.50560208 41.50474229 -75.88170882 40.13127662 -74.2578125 38.7578125 C-72.06301858 36.90088223 -69.87057029 35.04123031 -67.6796875 33.1796875 C-62.59482569 28.86276195 -57.49574284 24.57408281 -52.3125 20.375 C-48.76103154 17.48750173 -45.3206971 14.52031979 -41.9375 11.4375 C-28.800321 -0.46937176 -17.5522338 -9.48846405 0 0 Z " fill="#E7E6F7" transform="translate(642,330)"/>
<path d="M0 0 C13.86 0 27.72 0 42 0 C42 13.53 42 27.06 42 41 C28.14 41 14.28 41 0 41 C0 27.47 0 13.94 0 0 Z " fill="#858BB0" transform="translate(530,655)"/>
<path d="M0 0 C13.86 0 27.72 0 42 0 C42 13.53 42 27.06 42 41 C28.14 41 14.28 41 0 41 C0 27.47 0 13.94 0 0 Z " fill="#848AAF" transform="translate(530,599)"/>
<path d="M0 0 C13.53 0 27.06 0 41 0 C41 13.53 41 27.06 41 41 C27.47 41 13.94 41 0 41 C0 27.47 0 13.94 0 0 Z " fill="#858BB0" transform="translate(587,655)"/>
<path d="M0 0 C13.53 0 27.06 0 41 0 C41 13.53 41 27.06 41 41 C27.47 41 13.94 41 0 41 C0 27.47 0 13.94 0 0 Z " fill="#868CB1" transform="translate(587,599)"/>
<path d="M0 0 C1.1725131 0.95117134 2.33787015 1.91117009 3.5 2.875 C4.47453125 3.67550781 4.47453125 3.67550781 5.46875 4.4921875 C6.22671875 5.23855469 6.22671875 5.23855469 7 6 C7 6.66 7 7.32 7 8 C7.66 8 8.32 8 9 8 C9 8.66 9 9.32 9 10 C-0.07503724 10.04631059 -9.1500339 10.08186267 -18.22516346 10.10362434 C-22.43896975 10.11406808 -26.65269527 10.12823799 -30.86645508 10.15087891 C-34.93185407 10.17258633 -38.99717532 10.18456419 -43.06262779 10.18975449 C-44.61479606 10.19345403 -46.16696 10.20067819 -47.71909523 10.21146011 C-49.89070506 10.22594726 -52.06199231 10.22797913 -54.23364258 10.22705078 C-55.47052322 10.231492 -56.70740387 10.23593323 -57.98176575 10.24050903 C-61 10 -61 10 -64 8 C-63.67 7.34 -63.34 6.68 -63 6 C-62.14184692 6.23771118 -62.14184692 6.23771118 -61.26635742 6.48022461 C-57.33093048 7.38279102 -53.33632029 7.39317825 -49.3125 7.5625 C-48.33240967 7.60568359 -47.35231934 7.64886719 -46.3425293 7.69335938 C-35.53741432 8.11062839 -24.7319657 8.0567803 -13.92114258 7.96313477 C-13.22666016 7.95886978 -12.53217773 7.9546048 -11.81665039 7.95021057 C-9.91720707 7.93823409 -8.01780272 7.9204776 -6.1184082 7.90234375 C-3.52731439 7.98348659 -1.45506287 8.22667993 1 9 C1 8.34 1 7.68 1 7 C1.99 6.67 2.98 6.34 4 6 C3.01 5.071875 3.01 5.071875 2 4.125 C0 2 0 2 0 0 Z " fill="#5354E0" transform="translate(903,877)"/>
<path d="M0 0 C0 0.99 0 1.98 0 3 C-0.99 3 -1.98 3 -3 3 C-2.01 2.01 -1.02 1.02 0 0 Z M-5 4 C-4.34 4.33 -3.68 4.66 -3 5 C-8.06859981 11.66010555 -13.78640589 15.82576833 -21 20 C-21.66 19.34 -22.32 18.68 -23 18 C-22.03578125 17.32453125 -21.0715625 16.6490625 -20.078125 15.953125 C-18.80193898 15.05228781 -17.52590533 14.15123472 -16.25 13.25 C-15.61578125 12.8065625 -14.9815625 12.363125 -14.328125 11.90625 C-10.92163923 9.49332258 -7.84993043 7.08022784 -5 4 Z " fill="#181A28" transform="translate(866,693)"/>
<path d="M0 0 C0.33 0 0.66 0 1 0 C1.50900113 8.31368504 -1.90355194 14.07841535 -6 21 C-6.66 21 -7.32 21 -8 21 C-6.48728707 16.28562282 -4.73227046 11.71041415 -2.875 7.125 C-2.59785156 6.43664062 -2.32070313 5.74828125 -2.03515625 5.0390625 C-1.35835767 3.35873499 -0.67940197 1.67927658 0 0 Z " fill="#262837" transform="translate(894,645)"/>
<path d="M0 0 C1.28947482 2.98615222 0.9306671 4.21883983 -0.07421875 7.390625 C-0.59964405 8.68217042 -1.13803483 9.96849723 -1.6875 11.25 C-1.96352051 11.91588135 -2.23954102 12.5817627 -2.52392578 13.26782227 C-4.48770984 17.95108739 -6.61900747 22.51274484 -9 27 C-10.40318642 22.79044073 -8.88224523 20.90391604 -7 17 C-6.34 16.01 -5.68 15.02 -5 14 C-4.33841957 11.95415921 -4.33841957 11.95415921 -3.875 9.8125 C-3.58625 8.554375 -3.2975 7.29625 -3 6 C-2.34 6 -1.68 6 -1 6 C-0.67 4.02 -0.34 2.04 0 0 Z " fill="#F0F1F4" transform="translate(894,641)"/>
<path d="M0 0 C2 0 2 0 3.625 1.375 C5 3 5 3 5 5 C6.32 5.66 7.64 6.32 9 7 C9 7.66 9 8.32 9 9 C10.32 9.66 11.64 10.32 13 11 C12.67 11.99 12.34 12.98 12 14 C9.99387601 12.04761147 7.99507567 10.08862178 6 8.125 C5.42765625 7.56941406 4.8553125 7.01382813 4.265625 6.44140625 C2.80549218 4.99865596 1.39850702 3.5025626 0 2 C0 1.34 0 0.68 0 0 Z " fill="#7E7FE8" transform="translate(777,816)"/>
<path d="M0 0 C0.66 0.33 1.32 0.66 2 1 C0.83709195 4.48872415 -0.13967609 5.09976864 -3.0625 7.1875 C-3.79597656 7.71730469 -4.52945312 8.24710937 -5.28515625 8.79296875 C-5.85105469 9.19128906 -6.41695313 9.58960938 -7 10 C-7.66 9.34 -8.32 8.68 -9 8 C-6.03 5.36 -3.06 2.72 0 0 Z " fill="#191D33" transform="translate(494,502)"/>
<path d="M0 0 C2.475 0.99 2.475 0.99 5 2 C5 2.66 5 3.32 5 4 C7.475 4.99 7.475 4.99 10 6 C10 6.66 10 7.32 10 8 C12.475 8.99 12.475 8.99 15 10 C14.67 10.99 14.34 11.98 14 13 C11.66270866 11.02546836 9.33085338 9.04462531 7 7.0625 C6.33226562 6.49853516 5.66453125 5.93457031 4.9765625 5.35351562 C4.34492187 4.81533203 3.71328125 4.27714844 3.0625 3.72265625 C2.47597656 3.22515869 1.88945313 2.72766113 1.28515625 2.21508789 C0.86105469 1.81410889 0.43695312 1.41312988 0 1 C0 0.67 0 0.34 0 0 Z " fill="#E8E9EB" transform="translate(757,493)"/>
<path d="M0 0 C0.99 0.33 1.98 0.66 3 1 C0.03 3.64 -2.94 6.28 -6 9 C-6.66 8.34 -7.32 7.68 -8 7 C-6.74057614 5.80040625 -5.46704714 4.61560557 -4.1875 3.4375 C-3.12595703 2.44556641 -3.12595703 2.44556641 -2.04296875 1.43359375 C-1.36878906 0.96050781 -0.69460938 0.48742187 0 0 Z " fill="#E4E4EA" transform="translate(401,511)"/>
<path d="M0 0 C3.21043882 1.38188453 5.04936365 2.92421903 7.25 5.625 C8.03117188 6.57246094 8.03117188 6.57246094 8.828125 7.5390625 C9.40820312 8.26222656 9.40820312 8.26222656 10 9 C9.67 9.66 9.34 10.32 9 11 C7.49403892 9.54782324 5.99537896 8.08807139 4.5 6.625 C3.6646875 5.81289063 2.829375 5.00078125 1.96875 4.1640625 C0 2 0 2 0 0 Z " fill="#6D6EE7" transform="translate(792,832)"/>
<path d="M0 0 C0.99 0.33 1.98 0.66 3 1 C1.54712339 2.33927721 0.08752741 3.67126847 -1.375 5 C-2.18710937 5.7425 -2.99921875 6.485 -3.8359375 7.25 C-6 9 -6 9 -8 9 C-6.40758592 4.70048197 -3.64459275 2.60328053 0 0 Z " fill="#EFEFF2" transform="translate(595,346)"/>
<path d="M0 0 C1.15224028 0.92961422 2.29659176 1.8690125 3.4375 2.8125 C4.07558594 3.33457031 4.71367188 3.85664062 5.37109375 4.39453125 C7 6 7 6 8 9 C5.69 9 3.38 9 1 9 C1 8.34 1 7.68 1 7 C1.99 6.67 2.98 6.34 4 6 C3.34 5.38125 2.68 4.7625 2 4.125 C0 2 0 2 0 0 Z " fill="#5C5AEA" transform="translate(903,877)"/>
<path d="M0 0 C0.66 0.33 1.32 0.66 2 1 C-0.31 3.64 -2.62 6.28 -5 9 C-5.99 8.34 -6.98 7.68 -8 7 C-5.36 4.69 -2.72 2.38 0 0 Z " fill="#1C2036" transform="translate(507,491)"/>
<path d="M0 0 C0.66 0.33 1.32 0.66 2 1 C-1.00517424 4.86379545 -3.45081065 7.90983192 -8 10 C-8.66 9.67 -9.32 9.34 -10 9 C-6.7 6.03 -3.4 3.06 0 0 Z " fill="#DBDBE4" transform="translate(419,495)"/>
<path d="M0 0 C0.66 0.33 1.32 0.66 2 1 C-0.31 3.64 -2.62 6.28 -5 9 C-5.99 8.34 -6.98 7.68 -8 7 C-5.36 4.69 -2.72 2.38 0 0 Z " fill="#1B2036" transform="translate(527,474)"/>
<path d="M0 0 C2.10388569 -0.05402274 4.20816714 -0.09280256 6.3125 -0.125 C8.07013672 -0.15980469 8.07013672 -0.15980469 9.86328125 -0.1953125 C13 0 13 0 16 2 C15.67 2.66 15.34 3.32 15 4 C14.38125 3.690625 13.7625 3.38125 13.125 3.0625 C8.81197706 1.5960722 4.5240004 1.33380974 0 1 C0 0.67 0 0.34 0 0 Z " fill="#F3F3F6" transform="translate(623,327)"/>
<path d="M0 0 C3.39815137 1.13271712 4.28644916 2.1909314 6.5625 4.875 C7.16191406 5.57367187 7.76132812 6.27234375 8.37890625 6.9921875 C10 9 10 9 12 12 C8.60140297 10.53033642 6.35036291 8.61962486 3.75 6 C3.04359375 5.29875 2.3371875 4.5975 1.609375 3.875 C0 2 0 2 0 0 Z " fill="#141527" transform="translate(703,739)"/>
<path d="M0 0 C1.98 0.99 1.98 0.99 4 2 C4 2.66 4 3.32 4 4 C4.99 4.33 5.98 4.66 7 5 C8.6875 7.0625 8.6875 7.0625 10 9 C9.67 9.66 9.34 10.32 9 11 C7.68141572 9.73548068 6.37032369 8.46314525 5.0625 7.1875 C4.33160156 6.47980469 3.60070312 5.77210938 2.84765625 5.04296875 C1 3 1 3 0 0 Z " fill="#5C5EE8" transform="translate(818,860)"/>
<path d="M0 0 C4.2742558 1.5830577 6.26531794 4.50568404 9 8 C8.67 8.66 8.34 9.32 8 10 C6.66070495 8.71451591 5.32871357 7.42141845 4 6.125 C2.88625 5.04605469 2.88625 5.04605469 1.75 3.9453125 C0 2 0 2 0 0 Z " fill="#6363E3" transform="translate(806,847)"/>
<path d="M0 0 C5.01113235 1.4317521 6.94469549 3.98445693 10 8 C9.67 8.66 9.34 9.32 9 10 C7.49702124 8.52386015 5.99768715 7.04400843 4.5 5.5625 C3.6646875 4.73878906 2.829375 3.91507813 1.96875 3.06640625 C0 1 0 1 0 0 Z " fill="#B6B6F1" transform="translate(740,777)"/>
<path d="M0 0 C1.12894876 0.93274109 2.25300876 1.87140122 3.375 2.8125 C4.00148438 3.33457031 4.62796875 3.85664062 5.2734375 4.39453125 C7 6 7 6 9 9 C6 9 6 9 4.39453125 7.5390625 C3.61142578 6.59160156 3.61142578 6.59160156 2.8125 5.625 C2.28269531 4.99851562 1.75289062 4.37203125 1.20703125 3.7265625 C0 2 0 2 0 0 Z " fill="#141626" transform="translate(692,727)"/>
<path d="M0 0 C3.79588866 0.54226981 5.47211993 2.20127563 8 5 C7.67 5.99 7.34 6.98 7 8 C4.35247996 5.42215154 2.05567935 3.08351902 0 0 Z " fill="#BEBFEA" transform="translate(731,767)"/>
<path d="M0 0 C2.475 0.99 2.475 0.99 5 2 C5 2.66 5 3.32 5 4 C6.32 4.66 7.64 5.32 9 6 C8.67 6.99 8.34 7.98 8 9 C6.66368764 7.6905332 5.33102075 6.37734515 4 5.0625 C3.2575 4.33160156 2.515 3.60070312 1.75 2.84765625 C0 1 0 1 0 0 Z " fill="#A2A2F3" transform="translate(754,792)"/>
<path d="M0 0 C0.66 0.66 1.32 1.32 2 2 C0.90716423 3.03295436 -0.19970579 4.05107835 -1.3125 5.0625 C-1.92738281 5.63097656 -2.54226563 6.19945312 -3.17578125 6.78515625 C-3.77777344 7.18605469 -4.37976563 7.58695312 -5 8 C-5.99 7.67 -6.98 7.34 -8 7 C-5.36 4.69 -2.72 2.38 0 0 Z " fill="#1A1E33" transform="translate(618,397)"/>
<path d="M0 0 C1.13199353 0.9080162 2.25532363 1.82683826 3.375 2.75 C4.00148438 3.26046875 4.62796875 3.7709375 5.2734375 4.296875 C7.08312318 6.08199481 8.00117455 7.67949644 9 10 C7.67823515 9.09674384 6.36784934 8.17682097 5.0625 7.25 C4.33160156 6.73953125 3.60070312 6.2290625 2.84765625 5.703125 C0.79194601 3.80822085 0.37330824 2.72574271 0 0 Z " fill="#5F61E5" transform="translate(884,856)"/>
<path d="M0 0 C0.66 0.33 1.32 0.66 2 1 C1 4 1 4 -1.375 5.75 C-4 7 -4 7 -7 6 C-4.69 4.02 -2.38 2.04 0 0 Z " fill="#191C33" transform="translate(473,520)"/>
<path d="M0 0 C3.79588866 0.54226981 5.47211993 2.20127563 8 5 C7.67 5.99 7.34 6.98 7 8 C5.83035398 6.8572081 4.66435444 5.71068285 3.5 4.5625 C2.8503125 3.92441406 2.200625 3.28632812 1.53125 2.62890625 C0 1 0 1 0 0 Z " fill="#9192EF" transform="translate(768,807)"/>
</svg>
